<?xml version="1.0" encoding="utf-8"?>
<!-- Generator: Adobe Illustrator 24.0.1, SVG Export Plug-In . SVG Version: 6.00 Build 0)  -->
<svg version="1.1" id="Layer_1" xmlns="http://www.w3.org/2000/svg" xmlns:xlink="http://www.w3.org/1999/xlink" x="0px" y="0px"
	 viewBox="0 0 561 159" style="enable-background:new 0 0 561 159;" xml:space="preserve">
<style type="text/css">
	.st0{fill:#FFFFFF;}
</style>
<g>
	<g>
		<g>
			<path class="st0" d="M62.8,150.3c0-0.1-1-0.2-3-0.3c-2.1-0.1-4.9-0.1-8.3-0.2c-6.9,0-11.8-0.1-14.9-0.3c-3.1-0.2-4.9-0.6-5.4-1.2
				c-0.2-0.2-0.5-0.3-0.7-0.4c-0.2-0.1-0.4-0.2-0.5-0.2h-0.7c-0.8,0-2-0.1-3.7-0.4c-2.1-0.4-4.3-0.9-6.4-1.4s-3.5-1-4-1.4
				c-0.1-0.2-0.3-0.3-0.6-0.4c-0.3-0.1-0.6-0.1-1-0.1c-0.8,0-1.4-0.3-1.9-0.8c-0.5-0.6-0.8-1-0.8-1.4s0-0.5,0-0.6
				c0-0.5,0.3-0.9,0.9-1.1c0.3-0.1,0.5-0.3,0.7-0.5c0.2-0.3,0.3-0.5,0.3-0.9c0-0.5,0.1-0.7,0.3-0.8c0.2-0.1,0.3-0.1,0.5-0.1
				c0.3,0,0.7,0.1,1.2,0.2c0.6,0.1,1.1,0.2,1.6,0.4c0.5,0.1,0.8,0.3,1,0.5c0.2,0.1,0.4,0.2,0.6,0.2c0.2,0,0.4,0,0.5,0
				c0.2,0,0.5,0,0.7-0.1c0.2-0.1,0.4-0.1,0.6-0.1c0.2,0,0.4,0,0.6,0.1c0.5,0.1,1,0.1,1.4,0.3c1.7,0.6,5.1,1.1,10.2,1.6
				c5.1,0.4,10.6,0.7,16.4,0.7c5.2,0,9.2-0.1,11.8-0.2c2.6-0.1,5.5-0.5,8.6-1c1.1-0.2,2-0.3,2.7-0.3c0.6,0,1,0.1,1.2,0.3
				c0.1,0.1,0.3,0.2,0.5,0.2c0.3,0,0.7-0.1,1.2-0.4c0.6-0.3,1.4-0.5,2.5-0.5h2.5c0.5-0.1,0.7-0.2,0.8-0.3c0.1-0.2,0.3-0.3,0.7-0.5
				c0.4-0.2,0.9-0.3,1.6-0.4c0.6-0.1,1.5-0.3,2.5-0.5c1.1-0.3,2.1-0.5,3.2-0.8c1.1-0.2,2.2-0.5,3.3-0.7c1.2-0.3,2.1-0.4,2.7-0.5
				c0.7-0.2,1.6-0.4,2.7-0.8c1.1-0.3,2.1-0.7,3.1-1.1c1-0.3,1.8-0.6,2.5-0.9c0.7-0.3,1.2-0.4,1.3-0.4c0.1,0,0.4-0.1,0.8-0.3
				c0.4-0.2,0.8-0.5,1.3-0.8c0.5-0.3,1.1-0.5,1.7-0.8c0.6-0.3,1.3-0.4,1.8-0.4c0.7,0,1.3-0.1,1.8-0.4c0.5-0.3,1-0.7,1.6-1.4
				c0.4-0.5,0.8-0.8,1.3-1.1c0.5-0.3,0.8-0.5,1-0.5c0.2,0,0.4-0.1,0.5-0.2c0.1-0.1,0.2-0.2,0.2-0.3c0-0.2,0.2-0.4,0.6-0.5
				c0.4-0.2,0.9-0.4,1.5-0.5c0.6-0.1,1.1-0.2,1.6-0.3c0.2,0,0.4-0.1,0.5-0.2c0.1-0.1,0.2-0.3,0.3-0.5c0-0.3,0-0.6,0.1-0.9
				c0.1-0.3,0.1-0.6,0.3-0.9c0.4-1.2,0.6-2.2,0.6-2.8c0-0.6,0-1.1,0-1.2c0-0.8-0.1-1.4-0.3-1.8c-0.2-0.2-0.3-0.6-0.4-1.1
				c-0.1-0.5-0.2-1-0.3-1.6c0-0.5,0-0.9-0.1-1.1l-0.1-0.3c-0.1,0-0.1,0-0.1,0.1c-0.1,0.1-0.1,0.2-0.3,0.2c-0.2,0-0.6-0.3-1.2-0.8
				c-0.3-0.3-0.8-0.8-1.4-1.4c-0.6-0.6-1.2-1.1-1.7-1.6c-0.5-0.6-0.9-1.1-1.3-1.5c-0.4-0.5-0.5-0.8-0.5-1c0-0.5-0.1-0.8-0.4-0.9
				c-0.3-0.1-0.4-0.2-0.5-0.2c-0.2,0-0.5,0.1-0.7,0.4c-0.1,0.2-0.2,0.3-0.3,0.3h-0.1c-0.2,0-0.5-0.2-0.8-0.5
				c-0.3-0.2-0.5-0.5-0.6-0.8c-0.1-0.3-0.2-0.5-0.2-0.7c0-0.2-0.4-0.7-1.1-1.5c-0.7-0.8-1.6-1.7-2.6-2.7c-1-1-1.9-1.9-2.6-2.7
				c-0.7-0.8-1.2-1.4-1.3-1.6c-0.2-0.5-0.5-0.7-0.9-0.7c-0.1,0-0.3,0-0.4,0.1h-0.3c-0.5,0-0.8-0.2-1-0.6c-0.1-0.2-0.2-0.4-0.4-0.6
				c-0.2-0.2-0.5-0.3-0.7-0.3c-0.2,0-0.4-0.1-0.6-0.3c-0.2-0.2-0.4-0.4-0.5-0.6c-0.2-0.7-0.6-1.4-1.3-1.9c-0.6-0.5-1.3-0.9-1.9-1
				c-0.7-0.2-1.6-0.6-2.6-1.2c-1-0.6-1.7-1.3-2.2-1.9c-0.2-0.3-0.5-0.5-0.7-0.7c-0.2-0.2-0.4-0.3-0.6-0.3s-0.4-0.1-0.7-0.4
				c-0.3-0.3-0.6-0.6-0.9-1c-0.3-0.3-0.6-0.6-1-0.9c-0.4-0.3-0.7-0.4-1-0.4c-0.2,0-0.6-0.2-1.1-0.5c-0.5-0.3-1.1-0.7-1.6-1.1
				c-0.5-0.5-0.9-0.8-1.4-1.1c-0.5-0.3-0.8-0.5-0.9-0.5c-0.2,0-0.5-0.1-0.9-0.4c-0.4-0.3-0.9-0.6-1.3-1C76.8,77.7,76,77,74.9,76
				c-1.1-1-2.3-2-3.5-3.2c-1.2-1.1-2.3-2-3.1-2.9c-0.8-0.9-1.2-1.4-1.2-1.6c0-0.2-0.1-0.3-0.2-0.5c-0.1-0.2-0.3-0.3-0.4-0.3
				c-0.2-0.1-0.3-0.4-0.5-0.9c-0.1-0.5-0.3-1-0.4-1.6c-0.1-0.7-0.2-1.3-0.3-1.9c-0.2-0.6-0.3-1-0.5-1.2c-0.2-0.2-0.3-0.7-0.4-1.5
				c-0.1-0.8-0.2-1.7-0.2-2.6c-0.1-1-0.1-1.9-0.2-2.8c-0.1-0.8-0.2-1.4-0.3-1.6c-0.1-0.2-0.1-0.3-0.1-0.5c0-0.2,0-0.5,0.1-0.8
				c0.1-0.5,0.3-1.1,0.7-1.7c0.3-0.6,0.5-1.1,0.6-1.5c0.1-0.4,0.2-0.6,0.2-0.8v-0.2c-0.1-0.1-0.1-0.2-0.1-0.5c0-0.2,0.1-0.5,0.2-0.8
				c0.1-0.2,0.2-0.5,0.3-0.9c0.1-0.4,0.2-0.8,0.2-1.1c0.1-0.5,0.3-0.9,0.6-1.4c0.4-0.5,0.8-0.9,1.3-1.3c0.5-0.4,1-0.6,1.4-0.6
				c0.2,0,0.4-0.1,0.5-0.2c0.1-0.1,0.2-0.3,0.2-0.5c0-0.2,0.2-0.5,0.5-0.9c0.4-0.4,0.8-0.7,1.3-1.1c0.5-0.3,0.9-0.6,1.3-0.9
				c0.4-0.3,0.5-0.5,0.5-0.6c0-0.2,0.1-0.3,0.2-0.4c0.1-0.1,0.3-0.1,0.5-0.1c0.2,0,0.4-0.1,0.5-0.2c0.1-0.1,0.2-0.3,0.2-0.5
				c0-1,1.7-2.4,5.1-4.1c1.1-0.6,1.9-1,2.3-1.1c0.4-0.1,0.7-0.1,0.8-0.1c0.3,0,0.5,0.1,0.7,0.3c0.2,0.2,0.4,0.3,0.5,0.3h0.1
				c0.2-0.1,0.3-0.4,0.4-0.8c0.1-0.3,0.4-0.7,0.8-1c0.5-0.3,0.9-0.5,1.3-0.7c0.4-0.1,0.7-0.2,0.9-0.2s0.3,0.1,0.4,0.2h0.1
				c0.1,0,0.3-0.1,0.7-0.3c0.5-0.2,1-0.5,1.7-0.9c0.8-0.6,1.5-1,2-1.1c0.5-0.1,0.9-0.2,1.3-0.2c0.2,0,0.5,0,0.8,0.1
				c0.5,0.1,0.8,0.2,1.1,0.2c0.2,0,0.4,0,0.6-0.1c0.4-0.1,0.8-0.4,1.1-0.8c0.4-0.4,0.8-0.7,1.2-0.8c0.4-0.1,0.8-0.2,1.4-0.2h1.1
				c0.7,0,1.6-0.1,2.6-0.3c1.3-0.3,3-0.8,5.2-1.4c0.8-0.2,2.4-0.4,4.6-0.6c2.2-0.2,4.1-0.3,5.6-0.3c1.5,0,2.6,0,3.2,0
				c1.3,0,2.3,0,3.1,0.1h2.3c0.8,0,1.5-0.1,2-0.2c0.5-0.1,1-0.2,1.4-0.2c0.7,0,1.2,0.1,1.7,0.3c0.3,0.2,0.7,0.3,1,0.3
				c0.2,0,0.5-0.1,0.7-0.3c0.3-0.5,5.4-0.8,15-0.8c6.4,0.1,10.7,1,12.8,2.9c0.7,0.6,1.1,1.9,1.3,4c0.1,0.9,0.2,1.6,0.2,2
				c0,0.4-0.1,0.6-0.2,0.6c-0.1,0-0.2,0-0.3,0c-0.1,0-0.3,0-0.5-0.1c-0.3-0.2-0.6-0.3-1-0.3c-0.4-0.1-0.7-0.1-1.1-0.1
				c-1,0.1-2.3,0.1-3.9,0.1c-1.6,0-3.2,0-4.6,0c-1.4,0-2.3-0.1-2.8-0.2l-0.6-0.1l-0.5,0.1c-0.4,0.1-0.7,0.2-0.8,0.3
				c-0.2,0.2-0.7,0.3-1.5,0.3c-0.8,0.1-1.5,0.1-2.2,0.1h-1.1c-1.2,0-2.8,0-4.7,0.1c-2,0.1-3.9,0.1-5.7,0.3c-1.7,0.1-3.1,0.2-4.1,0.2
				c-1.8,0-2.9-0.1-3.3-0.4c-0.5-0.2-0.8-0.3-1.2-0.3c-0.3,0-0.6,0.1-0.9,0.3c-0.3,0.2-1.4,0.4-3.3,0.6c-1.9,0.3-3.8,0.5-5.9,0.7
				c-2.1,0.2-3.6,0.4-4.7,0.4c-0.2,0-0.5,0-0.7,0.1c-0.2,0.1-0.4,0.2-0.6,0.3c-0.4,0.2-1.1,0.5-2.2,0.7c-1.1,0.3-2.3,0.4-3.7,0.5
				c-0.6,0.1-1.3,0.2-1.9,0.3c-0.6,0.2-1.1,0.4-1.5,0.6c-0.4,0.2-0.9,0.4-1.4,0.6c-0.5,0.2-1.1,0.4-1.6,0.5
				c-0.5,0.1-1.2,0.4-2.2,0.7c-0.9,0.4-1.8,0.8-2.7,1.2c-0.9,0.5-1.7,0.8-2.5,1.1c-0.7,0.3-1.2,0.5-1.3,0.5c-0.2,0-0.6,0.2-1.2,0.5
				c-0.6,0.4-1.4,0.8-2.1,1.3c-0.8,0.5-1.5,0.9-2.1,1.4c-0.6,0.5-1,0.8-1.1,0.9c-0.1,0.2-0.2,0.3-0.3,0.3h-0.2c-0.1,0-0.2,0-0.3-0.1
				h-0.1c-0.1,0-0.3,0.1-0.4,0.2c-0.2,0.2-0.4,0.5-0.6,0.9c-0.2,0.3-0.4,0.6-0.6,0.9c-0.3,0.3-0.5,0.4-0.6,0.4c-0.2,0-0.3,0-0.5,0.1
				c-0.2,0.1-0.3,0.2-0.3,0.4c-0.1,0.2-0.2,0.3-0.4,0.5c-0.2,0.1-0.5,0.2-0.8,0.2c-0.3,0.1-0.6,0.2-0.9,0.4
				c-0.3,0.2-0.5,0.5-0.7,0.8c-0.2,0.3-0.4,0.7-0.8,1.3c-0.3,0.6-0.7,1.2-1,1.8c-0.5,0.8-0.8,1.4-0.9,1.9c-0.1,0.5-0.1,1-0.1,1.4
				c0,0.6,0.1,1.4,0.2,2.4c0.1,1,0.2,1.9,0.4,2.6c0.1,0.7,0.2,1.1,0.3,1.1c0.1,0,0.3,0.2,0.5,0.5c0.3,0.3,0.5,0.8,0.8,1.3
				c0.3,0.5,0.6,1,1,1.4c0.4,0.4,0.8,0.6,1.1,0.8c0.3,0.1,0.8,0.4,1.3,0.8c0.5,0.5,1.1,1,1.6,1.6c0.6,0.8,1.1,1.3,1.4,1.5
				c0.3,0.2,0.6,0.3,0.8,0.3c0.2,0,0.3,0,0.4-0.1c0.2-0.1,0.3-0.1,0.4-0.1c0.2,0,0.3,0,0.3,0.1c0.2,0,0.3,0.1,0.3,0.3
				c0,0.3,0.2,0.7,0.7,1.3c0.5,0.6,1,1.1,1.5,1.6c0.5,0.5,0.9,0.7,1.1,0.7c0.2,0,0.5,0.1,0.9,0.4c0.4,0.3,0.9,0.6,1.3,1.1
				c0.6,0.6,1.1,1,1.5,1.2c0.4,0.2,0.8,0.3,1.1,0.3c0.2,0,0.4,0,0.6-0.1c0.2-0.1,0.4-0.1,0.6-0.1c0.4,0,0.7,0.1,0.8,0.3
				c0.3,0.2,0.6,0.7,0.8,1.5c0.3,0.7,0.6,1.1,0.9,1.4c0.3,0.3,0.7,0.4,1.3,0.4c0.6,0,1,0.1,1.2,0.2c0.2,0.1,0.3,0.4,0.3,0.9
				c0,0.3,0.1,0.5,0.2,0.7c0.1,0.2,0.3,0.3,0.5,0.3c0.2,0,0.5,0.1,0.8,0.3c0.3,0.2,0.5,0.5,0.8,0.8c0.3,0.5,0.6,0.8,0.8,0.8h0.2
				c0.2,0,0.5-0.1,0.8-0.3c0.3-0.3,0.6-0.5,0.7-0.5c0.1,0,0.3,0.2,0.5,0.5c0.1,0.2,0.1,0.4,0.3,0.5c0.1,0.1,0.2,0.1,0.3,0.1h0.2
				c0.2,0,0.3,0.1,0.5,0.3c0.2,0.2,0.5,0.5,0.8,0.8c0.2,0.4,0.5,0.8,1,1.1c0.4,0.3,0.8,0.6,1.1,0.8c0.4,0.1,0.7,0.3,1,0.5
				c0.3,0.2,0.4,0.4,0.4,0.5c0,0.1,0.1,0.2,0.2,0.3c0.1,0.1,0.3,0.2,0.4,0.2c0.2,0,0.6,0.2,1.1,0.6c0.5,0.4,1,0.9,1.5,1.6
				c0.5,0.6,1.1,1.3,1.7,1.9c0.6,0.7,1.1,1.2,1.5,1.7c0.4,0.4,0.7,0.7,0.9,1.1c0.2,0.3,0.3,0.5,0.3,0.5v0.3c0,0.2,0.1,0.4,0.4,0.8
				c0.4,0.5,0.9,1,1.5,1.6c0.6,0.5,1.1,1,1.6,1.3c0.5,0.3,0.8,0.5,1,0.5h0.1c0.2-0.1,0.3-0.2,0.4-0.2c0.1,0,0.2,0.1,0.3,0.2
				c0.2,0.2,0.4,0.5,0.5,0.7c0.1,0.3,0.1,0.5,0.1,0.6c0,0.2,0,0.4-0.1,0.6v0.1c0,0.3,0.2,0.9,0.5,1.7c0.4,0.8,0.9,1.8,1.6,3
				c0.7,1.1,1.2,2.1,1.7,3c0.5,0.9,0.7,1.5,0.7,1.7c0,0.2,0.1,0.5,0.2,1c0.1,0.4,0.3,0.8,0.5,1.2c0.2,0.4,0.4,0.8,0.5,1.4
				c0.1,0.5,0.2,0.9,0.3,1.3c0,0.4,0.1,1,0.2,1.9c0.1,0.9,0.3,1.8,0.4,2.7c0.2,1,0.3,1.7,0.3,2c0,0.3,0,0.6,0,0.8
				c0,0.3,0,0.6-0.1,0.8c-0.1,0.3-0.3,0.7-0.7,1.2c-0.3,0.4-0.6,0.9-1,1.5c-0.4,0.6-0.7,1.2-0.9,1.8c-0.3,0.7-0.8,1.5-1.5,2.3
				c-0.7,0.9-1.4,1.6-2.1,2.3c-0.7,0.6-1.2,1-1.6,1c-0.3,0-0.7,0.2-1.4,0.7c-0.6,0.5-1.2,1-1.6,1.5c-0.5,0.5-0.7,0.9-0.7,1.1v0.1
				c0,0.1,0,0.2-0.1,0.2c-0.1,0-0.2,0-0.3-0.1c-0.1-0.1-0.1-0.1-0.3-0.1c-0.1,0-0.2,0-0.3,0.1c-0.3,0.1-0.5,0.3-0.7,0.6
				c-0.2,0.3-0.4,0.5-0.5,0.5c-0.1,0.1-0.2,0.1-0.3,0.1c-0.1,0-0.2,0-0.3-0.1H113c-0.1,0-0.2,0-0.3,0.1c-0.3,0.1-0.6,0.3-0.8,0.7
				c-0.5,0.5-1,0.8-1.6,0.8c-0.2,0-0.3,0-0.5-0.1c-0.2-0.1-0.3-0.1-0.4-0.1c-0.6,0-1.1,0.3-1.6,0.8c-0.5,0.4-1.3,0.8-2.5,1.4
				c-1.2,0.5-2.5,1-3.8,1.4c-1.3,0.4-2.3,0.6-3,0.6c-0.3,0-0.6,0-0.8,0.1c-0.3,0.1-0.5,0.2-0.6,0.3c-0.1,0.5-3,1.2-8.7,2.2
				c-1,0.2-2,0.4-3.1,0.6c-1.1,0.2-2,0.4-2.7,0.5c-0.7,0.2-1.7,0.3-3,0.4c-1.3,0.1-2.6,0.2-3.9,0.3c-1.3,0.1-2.4,0.1-3.4,0.3
				c-1,0.1-1.6,0.2-1.7,0.3c-0.2,0.1-0.6,0.2-1.2,0.2c-0.6,0-1.2-0.1-1.8-0.2c-0.6-0.1-1-0.1-1.4-0.1c-0.6,0-0.9,0.1-0.9,0.3
				c0,0.2-0.1,0.3-0.4,0.4c-0.3,0.1-0.6,0.1-1,0.1c-0.7,0-1-0.1-1-0.2C62.6,150.5,62.6,150.4,62.8,150.3z"/>
			<path class="st0" d="M143.7,122.5c-0.2-0.1-0.6-0.2-1.1-0.3c-0.5-0.1-1-0.2-1.5-0.2c-0.5,0-0.8,0-1.2-0.1
				c-0.3-0.1-0.5-0.2-0.5-0.4s0.1-0.3,0.2-0.4c0.1-0.1,0.2-0.1,0.3-0.1c0.2,0,0.3-0.1,0.4-0.3c0.1-0.2,0.2-0.4,0.2-0.6
				c0-0.2-0.1-0.3-0.2-0.5c-0.1-0.2-0.3-0.3-0.4-0.3c-0.2,0-0.3-0.1-0.3-0.2c0-0.2,0.1-0.4,0.3-0.6c0.3-0.4,1.2-0.8,2.7-1.1
				c1.5-0.3,4.1-0.7,7.6-1.2c1-0.1,1.7-0.2,2.1-0.3c0.5-0.1,0.7-0.2,0.8-0.4c0.1-0.1,0.1-0.3,0.1-0.4c0-0.2,0-0.3-0.1-0.5v-0.4
				c0-0.3,0-0.6,0.1-0.8c0.1-0.5,0.1-1,0.3-1.4c0.2-0.5,0.3-1,0.5-1.6c0.2-0.6,0.3-1.2,0.4-1.8c0.1-0.6,0.2-1,0.4-1.4
				c0.2-0.4,0.4-0.6,0.5-0.6c0.5,0,0.9-0.5,1.3-1.4c0.4-0.9,0.7-2.1,1-3.6c0.1-0.7,0.3-1.3,0.6-2c0.3-0.6,0.6-1.2,1-1.6
				c0.3-0.4,0.6-0.8,0.8-1.2c0.2-0.4,0.3-0.6,0.3-0.8c0-0.5,0.2-1.1,0.5-1.7c0.3-0.6,0.7-1.2,1.1-1.7c0.4-0.5,0.8-0.8,1.2-0.9
				c0.6-0.2,0.8-0.5,0.8-0.8l-0.1-0.3v-0.8c0.1-0.3,0.3-0.6,0.6-0.8c0.2-0.3,0.4-0.6,0.6-0.9c0.2-0.3,0.3-0.6,0.3-0.8
				c0.1-1.1,0.2-1.9,0.3-2.2c0.2-0.3,0.5-0.6,0.9-0.7c0.3-0.1,0.7-0.5,1.1-1.1c0.4-0.6,0.8-1.3,1-1.8c0.3-0.6,0.4-0.9,0.4-1.1
				c0-0.2,0-0.3-0.1-0.3V80c0-0.1,0.2-0.4,0.5-0.8c0.3-0.5,0.8-1,1.4-1.6c1.3-1.5,1.9-2.7,1.9-3.6c0-0.6-0.3-1-0.8-1.3
				c-0.5-0.2-0.8-0.3-1.2-0.3c-0.3,0-0.6,0-0.8,0c-0.3,0-0.6,0-0.8,0.1c-0.4,0.1-0.6,0.2-0.6,0.4c0,0.2-0.2,0.4-0.5,0.4
				c-0.4,0-0.7,0-1,0h-0.8c-0.5-0.1-0.8-0.2-1-0.4c-0.1-0.2-0.3-0.3-0.4-0.3c-0.3,0-0.6,0.1-0.9,0.3c-0.4,0.3-0.7,0.4-0.9,0.4
				c-0.3,0-0.5-0.1-0.8-0.4c-0.2-0.2-0.4-0.3-0.7-0.5c-0.3-0.1-0.6-0.2-0.9-0.2c-0.2,0-0.4,0-0.6-0.1c-0.2-0.1-0.3-0.2-0.3-0.4
				c0-0.1-0.1-0.2-0.2-0.3c-0.1-0.1-0.3-0.2-0.5-0.2c-0.5,0-0.7-0.1-0.8-0.4c-0.1-0.3-0.1-0.5-0.1-0.6c0-0.3,0.1-0.6,0.2-0.9
				c0.2-0.5,0.6-0.8,1-1c0.6-0.1,0.8-0.3,0.8-0.4c0-0.1-0.2-0.3-0.6-0.6c-0.3-0.2-0.5-0.3-0.5-0.5c-0.1-0.2-0.1-0.3-0.1-0.3
				c0-0.1,0-0.1,0.1-0.1c0.2-0.1,1.3-0.2,3.1-0.4c1.9-0.1,4.1-0.3,6.8-0.5s5.6-0.4,8.8-0.5c3.2-0.2,5.8-0.4,7.9-0.5
				c3.9-0.3,7.4-0.4,10.5-0.4h2.5c3.6,0.1,5.7,0.3,6.5,0.8c0.3,0.2,0.5,0.3,0.5,0.4l0.1,0.2c0,0.1,0,0.1-0.1,0.1
				c-0.2,0-0.3,0.1-0.3,0.3c-0.1,0.2-0.1,0.4-0.1,0.5c0,0.2,0,0.3,0.1,0.5c0.1,0.2,0.1,0.3,0.1,0.4c0,0.3-0.1,0.5-0.3,0.7
				c-0.2,0.2-0.5,0.4-1.1,0.5c-0.7,0.2-1,0.3-1,0.5c0,0.1,0.1,0.2,0.3,0.3c0.3,0.2,0.4,0.3,0.4,0.4c0,0.1-0.2,0.2-0.5,0.2
				c-0.5,0.1-1.3,0.1-2.5,0.2c-1.2,0.1-2.3,0.2-3.4,0.2c-0.8,0.1-1.2,0.2-1.2,0.4c0,0.1,0,0.1,0.1,0.2c0.1,0.1,0.1,0.1,0.1,0.2
				c0,0.2-0.2,0.3-0.6,0.3c-0.3,0-0.8-0.1-1.4-0.2c-0.6-0.1-1-0.2-1.4-0.2c-0.6,0-1,0.1-1.2,0.4c-0.1,0.2-0.3,0.3-0.5,0.3
				c-0.2,0-0.6-0.1-1-0.3c-0.3-0.2-0.6-0.3-1-0.3c-0.4-0.1-0.7-0.1-0.9-0.1c-0.2,0-0.5,0-0.7,0.1c-0.4,0.1-0.8,0.1-1.3,0.2
				c-0.5,0.1-0.8,0.1-1.1,0.1c-0.6,0.1-1,0.8-1.4,1.9c-0.2,0.6-0.6,1.2-1,2c-0.5,0.8-0.9,1.5-1.4,2.2c-0.5,0.7-1,1.4-1.4,2
				c-0.4,0.7-0.6,1.2-0.8,1.6c-0.1,0.3-0.2,0.7-0.4,1c-0.2,0.3-0.4,0.5-0.6,0.5c-0.2,0.1-0.4,0.3-0.5,0.7c-0.2,0.3-0.4,0.7-0.5,1.2
				c-0.1,0.5-0.3,0.9-0.4,1.3c-0.2,0.4-0.4,0.6-0.6,0.8c-0.2,0.2-0.5,0.8-1.1,1.8c-0.6,1-1.2,2.2-1.9,3.6c-0.7,1.5-1.5,3-2.3,4.6
				c-0.8,1.6-1.5,2.9-2.1,3.9c-2.2,3.9-4,7.3-5.3,10.2c-1.4,2.9-2,4.7-2,5.3v0.2c0.1,0.1,0.7,0.1,1.6,0.3c1,0.1,2.1,0.2,3.3,0.3
				c1.2,0.1,2.2,0.1,3,0.1c0.3,0,0.9,0,1.6,0c0.8,0,1.6,0,2.5,0c0.8,0,1.6,0,2.3,0.1c0.7,0.1,1.1,0.1,1.3,0.3
				c0.2,0.1,0.5,0.2,0.9,0.3c0.4,0.1,0.7,0.2,1.1,0.3c1.1,0.1,1.6,0.3,1.6,0.7c0,0.1-0.1,0.3-0.4,0.5c-0.2,0.2-0.4,0.3-0.7,0.3
				c-0.3,0-0.6-0.1-1.1-0.3c-0.4-0.2-0.7-0.3-1-0.3c-0.3,0-0.5,0.1-0.7,0.3c-0.1,0.1-0.2,0.2-0.2,0.3c0,0.2,0.3,0.3,0.8,0.5
				c0.7,0.3,1.1,0.7,1.1,1.3v0.1c0,0.7-0.4,1.2-1.2,1.4c-0.3,0.1-0.8,0.2-1.3,0.2c-0.5,0-0.9,0-1.3,0h-1c-1-0.1-2.9-0.1-6-0.1
				c-3,0-6.3,0-9.9,0c-3.6,0-6.7,0.1-9.3,0.1s-4,0.1-4.3,0.1h-0.5C144.1,122.8,143.9,122.7,143.7,122.5z"/>
			<path class="st0" d="M244.7,59.3c0.2,0.3,0.3,0.7,0.3,1.4c0,0.5-0.1,1.3-0.3,2.4c-0.2,1.1-0.8,3.2-1.8,6.3
				c-0.5,1.4-0.9,2.8-1.4,4.3c-0.5,1.5-0.8,2.6-1.1,3.6c-0.3,0.8-0.6,1.8-1,2.9c-0.4,1.1-0.7,2-1.1,2.8c-0.3,0.7-0.5,1.4-0.8,2.1
				c-0.1,0.6-0.2,1-0.2,1.3v0.6c0,0.2,0,0.5-0.1,0.7c-0.1,0.3-0.2,0.5-0.4,0.7c-0.2,0.2-0.4,0.8-0.7,1.6c-0.3,0.8-0.6,1.8-0.8,3
				c-0.4,1.6-0.6,2.8-0.6,3.4v0.3c0,0.5,0.1,0.9,0.4,1.3c0.2,0.3,0.4,0.5,0.5,0.8c0.1,0.2,0.1,0.3,0.1,0.3v0.3c0,0.1,0,0.2,0.1,0.3
				s0.3,0.3,0.5,0.5c0.5,0.4,0.7,0.7,0.7,1c0,0.4-0.5,0.7-1.5,0.8c-0.4,0.1-0.7,0.2-0.8,0.3c-0.2,0.1-0.3,0.2-0.3,0.3v0.3
				c0,0.1-0.1,0.3-0.3,0.5c-0.2,0.2-0.4,0.4-0.8,0.5c-0.5,0.2-0.9,0.6-1.2,1.4c-0.3,0.7-0.7,2-1.1,3.9c-0.5,2.1-1,4-1.5,5.9
				c-0.5,1.8-1.3,4.4-2.4,7.6c-0.6,1.7-1,2.7-1.4,3.1c-0.1,0.1-0.1,0.2-0.2,0.2c-0.1,0-0.2-0.2-0.2-0.6v-1.4c0-0.4,0-0.6-0.1-0.6
				c-0.2,0-0.6,0.7-1.2,2c-0.5,1.2-1,1.8-1.5,1.9h-0.2c-0.6,0-1.3-0.5-2.2-1.4c-1.1-1.1-1.7-2-1.7-2.8c0-0.3,0.1-0.6,0.3-0.9
				c0.2-0.3,0.4-1.1,0.6-2.2c0.2-1.1,0.3-2.3,0.3-3.5c0.1-0.6,0.1-1.2,0.1-1.7s0-0.9-0.1-1.3c-0.1-0.3-0.1-0.6-0.1-0.8
				c0-0.2,0-0.4,0.1-0.6c0.1-0.2,0.4-0.4,0.8-0.5c0.5-0.2,0.7-0.4,0.8-0.7c0.1-0.1,0.1-0.2,0.1-0.3c0-0.3-0.1-0.7-0.3-1.2
				c-0.1-0.5-0.3-1-0.4-1.4c-0.2-0.4-0.3-0.7-0.3-0.8c-0.1-0.1-0.2-0.1-0.5-0.1c-0.3,0-1,0.1-2.1,0.2c-1,0.1-2.5,0.4-4.4,0.8
				l-6.5,1.3l-2,2.7c-0.6,0.8-1.2,1.5-1.8,2.2c-0.6,0.6-1.1,1.1-1.4,1.4c-0.3,0.2-0.5,0.5-0.7,0.7c-0.2,0.2-0.3,0.3-0.3,0.5v0.1
				c0,0.2-0.1,0.5-0.3,1c-0.2,0.4-0.4,0.8-0.7,1.1c-0.2,0.2-0.4,0.3-0.6,0.3h-0.3c-0.1,0-0.2,0.1-0.3,0.2c-0.2,0.1-0.3,0.3-0.4,0.5
				c-0.2,0.2-0.3,0.4-0.3,0.6v0.2c0,0.1,0,0.1,0.1,0.1c0,0.1-0.3,0.5-0.8,1c-0.5,0.6-1.3,1.3-2.2,2.3c-2.1,2.1-3.3,3.1-3.6,3.1
				c-0.1,0-0.1,0-0.1-0.1c0-0.2,0.1-0.5,0.4-1c0.1-0.2,0.2-0.4,0.2-0.4h-0.1c-0.1,0-0.5,0.3-1,0.8c-0.8,0.8-1.7,1.2-2.5,1.2h-0.4
				c-0.6,0-1-0.1-1.2-0.4c-0.2-0.3-0.3-0.8-0.3-1.7c-0.1-1.3-0.3-2-0.7-2.2c-0.1,0-0.1,0-0.1-0.1c0-0.2,0.2-0.6,0.5-1.3
				c0.4-0.6,0.9-1.4,1.7-2.5c0.8-1,1.4-1.9,1.9-2.7c0.5-0.8,0.8-1.3,0.8-1.4c0-0.2,0.2-0.5,0.7-0.9c0.5-0.4,1-0.8,1.5-1.1
				c0.5-0.2,0.8-0.3,1.1-0.3h0.3c0.1,0,0.1,0,0.2,0c0.1,0,0.2-0.1,0.3-0.3l0.1-0.3c0-0.1,0-0.1-0.1-0.3c-0.1-0.1-0.2-0.2-0.3-0.3
				c-0.1-0.1-0.2-0.2-0.3-0.5c-0.1-0.3-0.1-0.5-0.1-0.9v-0.3c0-0.3-0.1-0.6-0.2-1c-0.1-0.4-0.3-0.7-0.6-1.1
				c-0.3-0.5-0.5-0.9-0.5-1.2v-0.3c0-0.2,0.3-0.5,0.8-1c0.3-0.3,0.6-0.6,0.7-0.8v-0.2c0-0.1-0.1-0.2-0.2-0.2h-0.2
				c-0.1,0-0.2,0-0.3-0.1c-0.1-0.1-0.2-0.2-0.3-0.3c0-0.1,0.2-0.3,0.5-0.4c0.4-0.2,0.8-0.3,1.4-0.3c1.9-0.2,3.4-0.7,4.5-1.5
				c1.1-0.8,2.5-2.3,4.4-4.7c1.1-1.4,2-2.5,2.9-3.4c0.9-0.9,1.5-1.4,1.8-1.5c0.4-0.1,0.6-0.2,0.6-0.3c0-0.1,0-0.2-0.1-0.3v-0.2
				c0-0.3,0.3-0.8,0.8-1.7c0.5-0.8,1.3-1.9,2.3-3.2c1-1.3,1.9-2.4,2.7-3.4c0.8-1,1.2-1.5,1.3-1.7c8.4-11.4,13.1-17.2,14-17.2h0.3
				c0.2,0,0.3-0.1,0.3-0.2c0-0.1,0-0.2-0.1-0.3c-0.1-0.1-0.1-0.2-0.1-0.3c0-0.2,0.1-0.4,0.3-0.8c0.2-0.4,0.5-0.8,0.8-1.3
				c0.7-0.8,1.4-1.6,2-2.2c0.7-0.6,1.2-1,1.6-1.1c0.1-0.1,0.2-0.1,0.3-0.1c0.1,0,0.1,0.1,0.1,0.2c0,0.1,0,0.3-0.1,0.4
				c-0.1,0.1-0.1,0.2-0.1,0.3c0,0.1,0,0.1,0.1,0.1c0.1,0,0.1,0,0.3-0.1c0.2-0.2,0.3-0.3,0.3-0.5v-0.3c0-0.1,0-0.3-0.1-0.4
				c-0.1-0.1-0.1-0.2-0.1-0.3c0-0.1,0-0.3,0.1-0.5c0.1-0.2,0.3-0.4,0.5-0.5c0.4-0.3,0.7-0.5,0.8-0.5c0.2,0,0.3,0.1,0.3,0.3
				c0,0.1,0.1,0.2,0.2,0.3h0.1c0.1,0,0.2,0,0.3-0.1c0.2-0.1,0.4-0.2,0.7-0.2c0.3,0,0.7,0.1,1.3,0.3c0.6,0.2,1.3,0.6,2.1,1.1
				C243.8,58.2,244.4,58.7,244.7,59.3z M225.5,92.7c0.3-0.3,0.6-1,1-1.9c0.4-0.9,0.7-1.9,0.9-2.8c0.2-0.8,0.3-1.4,0.3-1.8v-0.3
				c0-0.2-0.1-0.3-0.2-0.3c-0.1-0.1-0.3-0.1-0.4-0.1c-0.2,0.1-0.3,0.1-0.3,0.2v0.1c0,0.1,0,0.2,0.1,0.3l0.1,0.1
				c0,0.3-1.4,0.9-4.2,1.7c-0.2,0.1-0.3,0.2-0.4,0.3s-0.1,0.3-0.1,0.5c0,0.3-0.1,0.8-0.4,1.3c-0.3,0.5-0.6,0.9-1,1.3
				c-0.4,0.4-0.7,0.5-1,0.5h-0.3c-0.3,0-0.6,0.1-0.9,0.4c-0.2,0.2-0.3,0.5-0.3,0.7c0,0.2,0,0.3,0.1,0.5v0.1c0,0.2-0.1,0.6-0.3,1.1
				c-0.2,0.5-0.6,1.1-1.1,1.8c-0.5,0.7-0.9,1.4-1.3,1.9c-0.3,0.5-0.5,0.8-0.5,0.9h0.4c0.2,0,0.7,0,1.3,0c0.6,0,1.6-0.2,2.9-0.4
				l4.6-0.7v-2.2c0-0.7,0.1-1.3,0.3-1.9S225.3,93,225.5,92.7z M226.5,84c-0.5-0.2-0.9-0.3-1.1-0.3c-0.1,0-0.1,0-0.2,0.1
				c-0.1,0-0.1,0-0.1,0.1c0,0.1,0.2,0.2,0.7,0.5c0.3,0.2,0.6,0.3,0.8,0.3h0.5v-0.1c0-0.1,0-0.1-0.1-0.3
				C226.9,84.2,226.8,84.1,226.5,84z"/>
			<path class="st0" d="M338.1,111.9c0.1,0.1,0.2,0.3,0.3,0.5c0.1,0.2,0.2,0.4,0.2,0.5c0,0.3-0.5,0.7-1.6,1
				c-1.1,0.3-2.3,0.5-3.5,0.6c-0.6,0.1-1.2,0.1-1.6,0.1s-0.8,0-1.2-0.1c-0.4-0.2-0.7-0.3-1.1-0.4c-0.3-0.1-0.5-0.1-0.7-0.1
				c-0.2-0.1-0.3-0.1-0.5-0.1c-0.1,0-0.3-0.1-0.4-0.1c-0.1-0.1-0.5-0.1-1.3-0.2s-1.6-0.2-2.5-0.2c-0.9-0.1-1.6-0.1-2.2-0.1
				c-0.5,0-0.9-0.1-1.3-0.2c-0.4-0.1-0.7-0.2-0.9-0.3c-0.2-0.2-0.4-0.3-0.6-0.4c-0.2-0.1-0.4-0.1-0.5-0.1h-0.4c-0.2,0-0.5,0-0.9,0
				c-0.5,0-1-0.1-1.8-0.3c-0.7-0.1-1.5-0.2-2.2-0.3c-0.8-0.1-1.3-0.2-1.7-0.2c-0.3,0-0.7-0.1-1.2-0.2c-0.5-0.1-0.9-0.3-1.2-0.5
				l-0.8-0.4h-0.2c-0.1,0-0.2,0-0.2,0.1H308c-0.1,0-0.2,0-0.3,0s-0.4-0.1-0.6-0.2c-0.3-0.2-0.8-0.3-1.4-0.4
				c-0.6-0.1-1.2-0.2-1.9-0.3c-0.7,0-1.3-0.1-1.9-0.2c-0.6-0.1-1-0.3-1.2-0.4s-0.6-0.3-1.3-0.5c-0.6-0.1-1.3-0.2-2.1-0.2
				c-1.4-0.1-2.8-0.3-4.2-0.6c-1.5-0.4-2.5-0.7-3.2-1.1c-0.2-0.1-0.5-0.2-1-0.3c-0.5-0.1-1-0.2-1.6-0.2c-0.6-0.1-1.2-0.1-1.6-0.2
				c-0.5-0.1-0.7-0.2-0.8-0.3c-0.1-0.1-0.3-0.2-0.6-0.4c-0.3-0.1-0.6-0.3-1-0.4c-0.4-0.1-1-0.2-1.9-0.4c-0.9-0.2-1.8-0.5-2.8-0.7
				c-1-0.3-2.1-0.5-3.4-0.8c-1.2-0.3-2.3-0.5-3.2-0.6c-0.9-0.1-1.7-0.3-2.5-0.5c-0.8-0.2-1.3-0.4-1.5-0.5c-0.8-0.4-1.7-0.7-2.9-0.8
				c-0.5-0.1-1-0.2-1.5-0.2c-0.5,0-0.9,0.1-1.4,0.2c-0.6,0.1-1.1,0.3-1.4,0.6c-0.3,0.3-0.5,0.8-0.7,1.4c-0.2,0.5-0.4,1.1-0.8,1.9
				c-0.4,0.8-0.8,1.5-1.2,2.2c-2.3,3.4-3.8,6-4.6,7.8c-0.2,0.5-0.5,0.8-0.7,1.2s-0.5,0.5-0.6,0.5c-0.1,0-0.2,0.1-0.3,0.2
				c-0.1,0.1-0.2,0.3-0.2,0.4s-0.2,0.7-0.6,1.5c-0.4,0.8-0.9,1.7-1.5,2.7c-0.6,1-1.1,1.9-1.6,2.6s-0.9,1.2-1.1,1.4
				c-0.1,0.1-0.1,0.1-0.2,0.1c-0.1,0-0.2-0.1-0.2-0.4c0-0.2,0.1-0.6,0.2-1c0.1-0.5,0.2-0.8,0.2-1c0-0.1,0-0.2-0.1-0.3
				c0-0.1,0-0.1-0.1-0.1c-0.2,0-0.4,0.1-0.8,0.3c-0.3,0.2-0.5,0.5-0.7,0.7c-0.2,0.2-0.3,0.4-0.3,0.5c0,0.1,0,0.1-0.1,0.1
				c-0.1,0-0.3-0.1-0.5-0.3c-0.2-0.2-0.6-0.5-1-1c-0.7-0.7-1.1-1.4-1.3-2c-0.2-0.6-0.3-1.6-0.3-2.9c0-2.3,0.3-3.5,0.8-3.5
				c0.2-0.1,0.4-0.2,0.5-0.3c0.1-0.2,0.2-0.3,0.2-0.4c0-0.2,0.1-0.4,0.3-0.8c0.2-0.3,0.4-0.7,0.7-1.1c0.3-0.4,0.5-0.8,0.7-1.1
				c0.1-0.3,0.1-0.5,0.1-0.7v-0.6c0-0.1,0-0.2,0-0.3c0-0.1,0.1-0.1,0.2-0.1c0.2,0,0.3-0.2,0.4-0.5c0.1-0.3,0.2-0.7,0.2-1.1
				c0-0.5,0.1-0.9,0.3-1.2c0.2-0.4,0.4-0.6,0.6-0.7c0.2-0.1,0.4-0.2,0.5-0.3c0.1-0.2,0.2-0.3,0.2-0.5s0.1-0.5,0.4-0.8
				c0.3-0.4,0.6-0.8,1-1.2c0.8-0.8,1.3-1.6,1.3-2.2c0-0.7-0.5-1.3-1.4-1.8c-0.9-0.6-1.6-1.4-2.2-2.5c-0.5-0.9-0.8-1.7-0.8-2.5
				c0-0.2,0-0.4,0.1-0.6c0.1-0.6,0.7-1.2,2-1.7c1.3-0.5,3.6-1.1,6.9-1.9c1.1-0.2,1.8-0.5,2.2-0.7c0.4-0.3,0.7-0.6,0.7-1.1
				c0.1-0.7,0.6-1.2,1.4-1.3c0.7-0.1,1.2-0.6,1.4-1.4c0.1-0.3,0.3-0.7,0.5-1c0.3-0.3,0.5-0.5,0.8-0.6c0.3-0.1,0.6-0.4,0.9-0.9
				c0.3-0.5,0.6-1.1,0.8-1.8c0.2-0.7,0.3-1.3,0.3-1.9c0-0.1,0.2-0.4,0.6-0.8c0.4-0.5,0.9-1,1.4-1.5c0.6-0.6,1.1-1.2,1.7-2
				s1.1-1.4,1.4-1.9c0.5-0.7,0.8-1.3,0.8-1.8c0-0.6-0.5-0.9-1.4-0.9c-0.3,0-0.6,0-0.9,0.1h-0.5c-0.6,0-0.8-0.1-0.8-0.3
				c0-0.1,0-0.2,0.1-0.3v-0.3c0-0.4-0.4-0.7-1.1-0.8c-0.4-0.1-0.8-0.3-1.4-0.6c-0.5-0.3-0.9-0.6-1.3-1c-0.6-0.5-0.9-0.9-0.9-1.2
				c-0.1-0.1-0.1-0.1-0.1-0.3c0-0.2,0.1-0.5,0.3-0.7c0.2-0.2,0.6-0.4,1.1-0.5c0.5-0.1,1-0.2,1.6-0.2c0.8,0,1.3-0.1,1.4-0.2v-0.1
				c0-0.1-0.2-0.2-0.5-0.5c-0.2-0.2-0.4-0.3-0.6-0.5c-0.2-0.2-0.3-0.3-0.3-0.3c0-0.1,0.7-0.2,2-0.1c1.3,0,2.8,0.1,4.6,0.2
				c1.7,0.1,3.3,0.2,4.6,0.3c1.4,0.1,2.1,0.2,2.4,0.3c0.2,0.1,0.3,0.1,0.3,0.1s0.1,0,0.3,0s0.2-0.1,0.3-0.3c0.2-0.1,1.4-0.2,3.6-0.3
				c2.2-0.1,4.8-0.2,7.7-0.2c1.5-0.1,2.8-0.1,4.1-0.1c1.4,0,2.9,0,4.6,0.1c1.7,0.1,2.7,0.1,3.1,0.3c0.2,0.1,0.9,0.3,2.2,0.5
				c1.3,0.2,2.9,0.4,4.7,0.6c1.9,0.2,3.6,0.5,5.4,0.8c1.7,0.3,3,0.6,3.8,0.8c0.8,0.2,1.5,0.4,2.2,0.5c0.7,0.1,1.2,0.2,1.5,0.2
				c0.3,0,0.6,0.1,1,0.3c0.4,0.2,0.7,0.4,1,0.7c0.3,0.3,0.6,0.5,1.1,0.8c0.5,0.3,0.9,0.4,1.4,0.5c0.4,0.1,0.8,0.2,1.1,0.3
				c0.3,0.1,0.5,0.2,0.5,0.3c0.1,0.8,0.2,1.4,0.5,1.9c0.3,0.5,0.6,0.9,1.1,1.4c0.3,0.3,0.7,0.5,1,0.7c0.3,0.2,0.5,0.3,0.7,0.3
				c0.3,0.1,0.6,0.4,0.8,1c0.3,0.6,0.5,1.4,0.6,2.3c0.1,0.5,0.2,1,0.2,1.4c0,0.3,0,0.6-0.1,0.8c-0.1,1.2-0.5,2.2-1.1,3
				c-0.6,0.8-1.8,1.6-3.4,2.4c-0.7,0.4-1.5,0.8-2.3,1.3c-0.8,0.5-1.4,0.8-1.9,1c-0.5,0.3-1,0.5-1.6,0.7c-0.6,0.2-1,0.3-1.4,0.3
				c-0.4,0-0.8,0.1-1.1,0.2c-0.4,0.1-0.6,0.3-0.7,0.4c-0.2,0.2-0.9,0.4-1.9,0.8c-1.1,0.3-2.3,0.7-3.7,1.1c-1.4,0.4-2.7,0.7-4,0.9
				c-1.2,0.3-2.1,0.4-2.5,0.4c-0.3,0-0.6-0.1-0.9-0.2c-0.3-0.1-0.6-0.3-0.8-0.4c-0.2-0.2-0.4-0.3-0.7-0.3c-0.1,0-0.2,0-0.4,0
				c-0.2,0-0.4,0.1-0.7,0.3c-0.3,0.2-0.4,0.4-0.4,0.7c0,0.3-0.6,0.6-1.7,0.9c-1.1,0.3-3,0.6-5.7,1c-1.2,0.2-2.4,0.4-3.4,0.6
				c-1,0.2-1.7,0.5-2,0.7c-0.3,0.2-0.6,0.3-0.9,0.4h-0.8l-0.3-0.1c-0.1,0-0.2,0-0.3,0.1c-0.1,0.1-0.3,0.1-0.4,0.3
				c-0.1,0.2-0.3,0.3-0.6,0.4c-0.3,0.1-0.7,0.2-1.1,0.2c-0.7,0-1.1,0.1-1.1,0.3c0,0.1,0.1,0.2,0.3,0.4c0.2,0.2,1.1,0.5,2.5,0.9
				c0.7,0.2,1.4,0.4,1.9,0.6c0.6,0.2,0.9,0.4,1.1,0.5c0.2,0.1,0.6,0.3,1.4,0.4c0.8,0.2,1.6,0.3,2.6,0.5s2.1,0.4,3.3,0.6
				s2.3,0.5,3.3,0.8c1.9,0.5,3.4,0.9,4.4,1.2c1,0.3,1.8,0.5,2.3,0.6c0.5,0.1,1,0.2,1.4,0.3c3.3,0.5,9,1.9,17.2,4.1
				c1.1,0.3,2.2,0.6,3.4,0.9c1.2,0.3,2.2,0.6,3,0.8c1.6,0.4,2.9,0.9,3.9,1.4c0.8,0.5,1.3,0.9,1.3,1.3v0.2c-0.1,0.1-0.1,0.1-0.1,0.3
				c0,0.1,0,0.1,0,0.3C337.8,111.7,337.9,111.8,338.1,111.9z M283.2,85.9c0.2,0.2,0.4,0.3,0.6,0.3c0.1,0,0.1,0,0.2,0
				c0.1,0,0.3-0.2,0.6-0.6c0.3-0.3,1-0.7,2.2-1.1c1.2-0.4,2.6-0.7,4.1-1c1.5-0.3,2.9-0.5,4.1-0.6c0.4-0.1,0.7-0.1,1-0.1
				c0.6,0,1,0.1,1.2,0.3c0.4,0.3,0.8,0.5,1.2,0.5c0.1,0,0.2,0,0.4,0c0.2,0,0.3-0.2,0.3-0.7c0-0.8,2.2-1.6,6.7-2.2
				c0.8-0.1,1.5-0.2,2.1-0.4c0.6-0.1,0.9-0.3,1.1-0.5c0.1-0.1,0.3-0.2,0.8-0.3c0.5-0.1,1-0.1,1.6-0.1c1.3,0,2.9-0.5,4.8-1.4
				c0.8-0.4,1.5-0.7,2.2-1.1c0.6-0.3,1.1-0.5,1.3-0.6c0.6-0.3,0.9-0.7,0.9-1c0-0.5-0.6-0.9-1.7-1.4c-0.6-0.2-1.1-0.5-1.6-0.8
				c-0.5-0.3-0.8-0.6-1-0.9c-0.2-0.2-0.4-0.4-0.6-0.4c-0.1-0.1-0.2-0.1-0.3-0.1c-0.1,0-0.1,0-0.3,0.1c-0.1,0.1-0.2,0.1-0.3,0.1
				c-0.2,0-0.4,0-0.8-0.1c-0.4-0.1-0.8-0.2-1.3-0.4c-0.5-0.2-1-0.4-1.6-0.5c-0.4-0.1-0.7-0.1-1-0.1h-0.7c-0.1,0-0.3,0-0.4,0
				c-0.2,0-0.3-0.1-0.3-0.2c0-0.1-0.6-0.1-1.9-0.3c-1.2-0.1-2.8-0.2-4.6-0.3c-1.9-0.1-3.7-0.1-5.5-0.2c-1.8-0.1-3.2-0.2-4.1-0.2
				c-1,0-2.1,0-3.5,0c-1.4,0-2.6,0.1-3.8,0.2c-1.2,0.1-2.1,0.1-2.7,0.3c-0.6,0.1-1.1,0.3-1.3,0.4s-0.4,0.4-0.5,0.8
				c-0.1,0.3-0.3,0.6-0.6,1.1c-0.3,0.4-0.6,0.8-0.9,1.1c-0.3,0.3-0.9,0.9-1.6,1.9c-0.7,1-1.5,2-2.2,3.1c-0.7,1.1-1.5,2.3-2.3,3.5
				c-0.8,1.2-1.4,2.1-1.9,2.8c-0.5,0.6-0.8,1.2-1.1,1.6c-0.3,0.5-0.5,0.7-0.5,0.8c0,0.1,0.1,0.1,0.3,0.1c0.2,0,0.5,0,0.8,0
				c0.3,0,0.6-0.1,0.9-0.1c0.3-0.1,0.5-0.1,0.5-0.2c0.2-0.2,0.8-0.4,2-0.6c1.2-0.2,2.4-0.4,3.8-0.6c1.4-0.2,2.4-0.3,3-0.3
				c0.4,0,0.8,0.1,1.2,0.2C282.6,85.6,283,85.8,283.2,85.9z M283.3,95.6c0-0.1-0.1-0.2-0.3-0.3c-0.2-0.1-0.5-0.3-0.8-0.5
				c-0.4-0.2-0.7-0.3-0.8-0.3c-0.1,0-0.2,0.2-0.2,0.5c0,0.2,0.1,0.4,0.3,0.5c0.2,0.1,0.4,0.2,0.7,0.2c0.3,0,0.5,0,0.8,0
				C283.2,95.8,283.3,95.7,283.3,95.6z"/>
			<path class="st0" d="M355.1,131.5c-0.7-0.4-1.3-0.6-1.6-0.6c-0.3,0-0.6,0.1-0.9,0.5c-0.3,0.3-0.6,0.4-0.8,0.4h-0.1
				c-0.3,0-0.8-0.2-1.5-0.7c-0.5-0.3-1-0.5-1.4-0.7c-0.4-0.2-0.7-0.3-0.8-0.3h-0.1c-0.2,0-0.3-0.1-0.5-0.3c-0.2-0.3-0.5-0.6-0.7-1.1
				c-0.2-0.5-0.5-0.8-0.7-1.2c-0.2-0.3-0.4-0.5-0.5-0.6c-0.1-0.1-0.2-0.2-0.3-0.4c-0.1-0.2-0.1-0.5-0.1-0.8c0-0.3-0.2-0.6-0.6-1.1
				c-0.4-0.4-0.9-0.9-1.5-1.3l-2-1.4l0.3-3.5c0.1-1,0.1-2.1,0.2-3.3c0.1-1.2,0.2-2.2,0.2-3c0-0.8,0.1-1.5,0.2-2.2
				c0.1-0.6,0.3-1.1,0.5-1.4c0.2-0.2,0.3-0.4,0.3-0.7c0-0.3,0-0.5,0-0.6c0-0.3,0-0.6-0.1-0.8c-0.1-0.3-0.1-0.7-0.1-1
				c0-0.7,0.1-1.3,0.3-1.9c0.4-1,0.8-1.5,1.4-1.5c0.3,0,0.7-0.2,1.1-0.7c0.4-0.5,0.6-1,0.8-1.5c0.2-0.5,0.3-0.9,0.3-1.2
				c0-0.2,0-0.3-0.1-0.4c-0.1-0.2-0.1-0.4-0.1-0.6c0-0.5,0.1-1,0.3-1.5c0.4-0.8,1-1.7,1.8-2.6c0.4-0.4,0.7-0.7,0.8-1
				s0.3-0.4,0.3-0.5c0-0.1,0.1-0.4,0.3-0.8c0.2-0.5,0.5-1.1,0.8-1.9c0.4-0.7,0.8-1.4,1.1-1.9s0.6-0.8,0.8-0.8s0.3-0.1,0.4-0.3
				c0.1-0.2,0.1-0.4,0.1-0.6c0-0.2,0.1-0.4,0.2-0.5c0.1-0.1,0.3-0.2,0.5-0.2c0.2,0,0.4-0.1,0.6-0.4c0.2-0.3,0.4-0.6,0.4-1
				c0.1-0.4,0.3-0.8,0.6-1.1c0.3-0.3,0.6-0.6,0.9-0.7c0.3-0.1,0.7-0.4,1.1-0.7c0.4-0.4,0.8-0.8,1.1-1.2c1.6-2.2,3.6-4.1,6-5.7
				c0.6-0.3,1.1-0.7,1.7-1.2c0.6-0.5,1.1-0.9,1.4-1.3c0.4-0.4,0.8-0.7,1.1-1c0.3-0.3,0.6-0.4,0.7-0.4c0.1,0,0.4-0.1,0.7-0.3
				c0.4-0.2,0.7-0.5,1.1-0.8c0.3-0.3,0.7-0.5,1.1-0.7c0.4-0.2,0.7-0.3,0.9-0.3c0.2,0,0.7-0.2,1.7-0.6c1-0.4,2.1-0.9,3.3-1.5
				c1.2-0.6,2.4-1.1,3.4-1.5c1-0.5,1.7-0.7,2.1-0.8c0.3-0.1,0.8-0.3,1.7-0.6c0.8-0.3,1.8-0.6,2.8-0.9c1.7-0.6,2.9-0.9,3.5-1
				c0.6,0,1.1,0,1.2,0c0.6,0,0.8,0.1,0.8,0.3c0,0.1,0,0.1-0.1,0.3c-0.1,0.1-0.1,0.2-0.1,0.3v0.1c0.1,0.1,0.2,0.2,0.3,0.2
				s0.4,0.1,0.6,0.2c0.3,0.1,0.5,0.3,0.7,0.5c3.3,2.8,4.9,5.3,5,7.5c0,0.7,0,1-0.1,1.1l-0.1,0.1c-0.1,0-0.3-0.2-0.6-0.6
				c-0.4-0.5-1.1-0.8-2.2-1.1c-1.1-0.3-1.9-0.5-2.5-0.5s-1,0-1.1,0c-0.8,0-1.4,0.1-1.6,0.4c-0.5,0.6-1.8,1-4,1.2
				c-1,0.1-1.8,0.2-2.5,0.3c-0.7,0.1-1.1,0.2-1.2,0.3c-0.1,0.1-0.5,0.4-1.3,0.8c-0.8,0.5-1.7,1-2.7,1.5c-1.1,0.6-2.2,1.3-3.3,1.9
				c-1,0.7-1.8,1.2-2.3,1.7c-2,1.9-3.8,3.4-5.4,4.6s-2.6,1.8-3.1,1.8h-0.1c-0.1-0.1-0.2-0.1-0.3-0.1c-0.3,0-0.4,0.3-0.4,0.8
				c0,0.3-0.1,0.6-0.2,0.8c-0.1,0.3-0.3,0.5-0.4,0.6c-0.1,0.1-0.2,0.1-0.2,0.3c0,0.1,0,0.2,0,0.3v0.3c0,0.1-0.1,0.3-0.3,0.6
				c-0.2,0.3-0.6,0.6-1,0.9c-0.5,0.3-0.9,0.8-1.4,1.4c-0.5,0.6-0.9,1.2-1.2,1.7c-0.3,0.6-0.7,1.1-1,1.6c-0.3,0.5-0.6,0.9-0.8,1.1
				c-0.4,0.5-1,1.5-1.8,3c-0.8,1.5-1.6,3-2.2,4.6c-0.7,1.6-1,2.5-1,2.9c0,0.3-0.2,1-0.7,2.1c-0.5,1.1-0.9,2.1-1.4,3
				c-0.5,0.9-0.8,1.5-1.1,1.6c-0.2,0.1-0.3,0.5-0.3,1.3c0,0.7,0,1.4,0,1.9v1.9c0.1,1.3,0.2,2.5,0.3,3.5c0.1,1,0.3,1.7,0.4,1.9
				c0.3,0.3,0.5,0.5,0.6,0.5c0.2,0,0.3-0.1,0.5-0.4c0.1-0.3,0.3-0.4,0.4-0.4c0.2,0,0.4,0.1,0.6,0.4c0.4,0.4,1,0.6,1.7,0.6
				c0.7,0,1.7-0.2,3.1-0.7c0.6-0.2,1.5-0.4,2.5-0.7c1-0.3,2-0.6,2.9-0.9c1-0.3,1.8-0.6,2.5-1c0.7-0.4,1.5-0.9,2.5-1.6
				c0.9-0.7,2.1-1.6,3.6-2.9c0.6-0.5,1.1-0.9,1.5-1.3c0.5-0.3,0.7-0.5,0.8-0.5c0.1,0,0.4-0.2,0.8-0.5s0.9-0.8,1.5-1.4
				c0.6-0.6,1.5-1.3,2.5-2.3c1-1,2.1-2,3.2-2.9c1-1,1.8-1.8,2.5-2.4c0.6-0.6,0.9-1,0.9-1.1c0-0.1-0.1-0.1-0.4-0.1
				c-0.3,0-0.7,0-1.3,0.1c-1,0.1-2.3,0.2-3.7,0.3c-1.5,0.2-2.7,0.3-3.6,0.3h-0.5c-0.8,0-1.3-0.1-1.4-0.3c-0.2-0.3-0.9-0.4-2-0.4H372
				c-0.6,0.1-1,0.1-1.4,0.1c-0.4,0-0.7,0-1-0.1c-0.5-0.1-1-0.4-1.4-0.8c-0.7-0.7-1-1.3-1-1.9c0-0.5,0.2-1,0.7-1.4
				c0.3-0.3,0.4-0.6,0.4-0.8c0-0.2-0.1-0.5-0.2-0.7c-0.1-0.2-0.2-0.3-0.2-0.5c0-0.1,0-0.2,0.1-0.3c0.2-0.2,0.6-0.3,1.4-0.4
				c2-0.3,3.5-0.5,4.6-0.6c1.1-0.1,2-0.2,2.8-0.2h0.8c0.6,0,1.5-0.1,2.5-0.2c1-0.1,2-0.3,3-0.4c1-0.2,1.8-0.3,2.7-0.4
				c0.8-0.1,1.4-0.2,1.6-0.2c0.2,0,0.4,0,0.6-0.1c0.2-0.1,0.3-0.1,0.3-0.3c0-0.1,0.2-0.2,0.5-0.3c0.3-0.1,0.7-0.1,1.2-0.1
				c1.6-0.1,3.3-0.2,5.2-0.3c1.9-0.1,3.5-0.3,4.8-0.5c1.4-0.2,2-0.4,2-0.5c0-0.1,0.1-0.2,0.3-0.2c0.2,0,0.5,0.1,0.8,0.3
				c0.3,0.2,0.9,0.3,1.8,0.4c0.9,0.1,1.9,0.1,2.9,0.1c1.7,0,2.9,0.1,3.4,0.3c0.5,0.2,0.8,0.4,0.8,0.5c0,0.2-0.1,0.3-0.4,0.5
				c-0.2,0.1-0.3,0.3-0.3,0.4s0.1,0.4,0.3,0.6c0.2,0.2,0.3,0.4,0.3,0.6s-0.1,0.3-0.4,0.4c-0.2,0.1-0.3,0.1-0.3,0.2
				c0,0.1,0.1,0.1,0.4,0.1c0.4,0.1,0.6,0.1,0.6,0.3v0.1c-0.1,0.2-0.4,0.3-0.8,0.5s-1,0.3-1.5,0.3c-0.6,0-1.1,0.1-1.4,0.3
				c-0.3,0.2-0.5,0.3-0.5,0.5v0.1c0.1,0.2,0.4,0.3,0.9,0.3c0.2,0,0.3,0,0.3,0.1c0,0.1-0.1,0.1-0.4,0.3c-0.5,0.2-1.2,0.5-2.2,0.8
				c-1,0.3-2,0.5-3,0.8c-1.1,0.2-2,0.4-2.8,0.5c-0.8,0.1-1.5,0.2-1.9,0.4c-0.4,0.1-0.7,0.4-1,0.6c-0.2,0.3-0.5,0.8-0.8,1.4
				c-0.2,0.6-0.5,1-0.7,1.4c-0.2,0.4-0.4,0.6-0.5,0.6c-0.1,0-0.3,0.2-0.6,0.7c-0.3,0.5-0.6,1-0.9,1.6c-0.5,1-1.4,2.3-2.6,3.7
				c-1.2,1.5-2.4,2.7-3.6,3.8s-2,1.6-2.4,1.6c-0.1-0.1-0.1-0.1-0.3-0.1c-0.2,0-0.3,0.1-0.5,0.3c-0.2,0.2-0.4,0.6-0.6,1
				c-0.2,0.5-0.8,1.1-1.9,2.1c-1,0.9-2,1.8-3.1,2.6c-1,0.8-1.8,1.3-2.2,1.3c-0.1,0-0.8,0.3-2.1,1c-1.3,0.6-2.9,1.4-4.7,2.3
				c-4.5,2.3-7.6,3.5-9.1,3.5c-1.7,0.1-2.7,0.5-3,1c-0.2,0.3-0.3,0.5-0.4,0.6c-0.1,0.1-0.2,0.1-0.3,0.1c-0.2,0-0.4-0.1-0.6-0.2
				C356.4,132.2,355.9,132,355.1,131.5z"/>
			<path class="st0" d="M463.4,59.3c0.2,0.3,0.3,0.7,0.3,1.4c0,0.5-0.1,1.3-0.3,2.4c-0.2,1.1-0.8,3.2-1.8,6.3
				c-0.5,1.4-0.9,2.8-1.4,4.3c-0.5,1.5-0.8,2.6-1.1,3.6c-0.3,0.8-0.6,1.8-1,2.9c-0.4,1.1-0.7,2-1.1,2.8c-0.3,0.7-0.5,1.4-0.8,2.1
				c-0.1,0.6-0.2,1-0.2,1.3v0.6c0,0.2,0,0.5-0.1,0.7c-0.1,0.3-0.2,0.5-0.4,0.7c-0.2,0.2-0.4,0.8-0.7,1.6c-0.3,0.8-0.6,1.8-0.8,3
				c-0.4,1.6-0.6,2.8-0.6,3.4v0.3c0,0.5,0.1,0.9,0.4,1.3c0.2,0.3,0.4,0.5,0.5,0.8c0.1,0.2,0.1,0.3,0.1,0.3v0.3c0,0.1,0,0.2,0.1,0.3
				c0.1,0.2,0.3,0.3,0.5,0.5c0.5,0.4,0.7,0.7,0.7,1c0,0.4-0.5,0.7-1.5,0.8c-0.4,0.1-0.7,0.2-0.8,0.3c-0.2,0.1-0.3,0.2-0.3,0.3v0.3
				c0,0.1-0.1,0.3-0.3,0.5c-0.2,0.2-0.4,0.4-0.8,0.5c-0.5,0.2-0.9,0.6-1.2,1.4c-0.3,0.7-0.7,2-1.1,3.9c-0.5,2.1-1,4-1.5,5.9
				c-0.5,1.8-1.3,4.4-2.4,7.6c-0.6,1.7-1,2.7-1.4,3.1c-0.1,0.1-0.1,0.2-0.2,0.2c-0.1,0-0.2-0.2-0.2-0.6v-1.4c0-0.4,0-0.6-0.1-0.6
				c-0.2,0-0.6,0.7-1.2,2c-0.5,1.2-1,1.8-1.5,1.9h-0.2c-0.6,0-1.3-0.5-2.2-1.4c-1.1-1.1-1.7-2-1.7-2.8c0-0.3,0.1-0.6,0.3-0.9
				c0.2-0.3,0.4-1.1,0.6-2.2c0.2-1.1,0.3-2.3,0.3-3.5c0.1-0.6,0.1-1.2,0.1-1.7s0-0.9-0.1-1.3c-0.1-0.3-0.1-0.6-0.1-0.8
				c0-0.2,0-0.4,0.1-0.6c0.1-0.2,0.4-0.4,0.8-0.5c0.5-0.2,0.7-0.4,0.8-0.7c0.1-0.1,0.1-0.2,0.1-0.3c0-0.3-0.1-0.7-0.3-1.2
				c-0.1-0.5-0.3-1-0.4-1.4s-0.3-0.7-0.3-0.8c-0.1-0.1-0.2-0.1-0.5-0.1c-0.3,0-1,0.1-2.1,0.2c-1,0.1-2.5,0.4-4.4,0.8l-6.5,1.3
				l-2,2.7c-0.6,0.8-1.2,1.5-1.8,2.2c-0.6,0.6-1.1,1.1-1.4,1.4c-0.3,0.2-0.5,0.5-0.7,0.7c-0.2,0.2-0.3,0.3-0.3,0.5v0.1
				c0,0.2-0.1,0.5-0.3,1c-0.2,0.4-0.4,0.8-0.7,1.1c-0.2,0.2-0.4,0.3-0.6,0.3h-0.3c-0.1,0-0.2,0.1-0.3,0.2c-0.2,0.1-0.3,0.3-0.4,0.5
				c-0.2,0.2-0.3,0.4-0.3,0.6v0.2c0,0.1,0,0.1,0.1,0.1c0,0.1-0.3,0.5-0.8,1c-0.5,0.6-1.3,1.3-2.2,2.3c-2.1,2.1-3.3,3.1-3.6,3.1
				c-0.1,0-0.1,0-0.1-0.1c0-0.2,0.1-0.5,0.4-1c0.1-0.2,0.2-0.4,0.2-0.4H411c-0.1,0-0.5,0.3-1,0.8c-0.8,0.8-1.7,1.2-2.5,1.2H407
				c-0.6,0-1-0.1-1.2-0.4c-0.2-0.3-0.3-0.8-0.3-1.7c-0.1-1.3-0.3-2-0.7-2.2c-0.1,0-0.1,0-0.1-0.1c0-0.2,0.2-0.6,0.5-1.3
				c0.4-0.6,0.9-1.4,1.7-2.5s1.4-1.9,1.9-2.7c0.5-0.8,0.8-1.3,0.8-1.4c0-0.2,0.2-0.5,0.7-0.9c0.5-0.4,1-0.8,1.5-1.1
				c0.5-0.2,0.8-0.3,1.1-0.3h0.3c0.1,0,0.1,0,0.2,0c0.1,0,0.2-0.1,0.3-0.3l0.1-0.3c0-0.1,0-0.1-0.1-0.3c-0.1-0.1-0.2-0.2-0.3-0.3
				c-0.1-0.1-0.2-0.2-0.3-0.5c-0.1-0.3-0.1-0.5-0.1-0.9v-0.3c0-0.3-0.1-0.6-0.2-1c-0.1-0.4-0.3-0.7-0.6-1.1
				c-0.3-0.5-0.5-0.9-0.5-1.2v-0.3c0-0.2,0.3-0.5,0.8-1c0.3-0.3,0.6-0.6,0.7-0.8v-0.2c0-0.1-0.1-0.2-0.2-0.2H413
				c-0.1,0-0.2,0-0.3-0.1c-0.1-0.1-0.2-0.2-0.3-0.3c0-0.1,0.2-0.3,0.5-0.4c0.4-0.2,0.8-0.3,1.4-0.3c1.9-0.2,3.4-0.7,4.5-1.5
				s2.5-2.3,4.4-4.7c1.1-1.4,2-2.5,2.9-3.4c0.9-0.9,1.5-1.4,1.8-1.5c0.4-0.1,0.6-0.2,0.6-0.3c0-0.1,0-0.2-0.1-0.3v-0.2
				c0-0.3,0.3-0.8,0.8-1.7c0.5-0.8,1.3-1.9,2.3-3.2c1-1.3,1.9-2.4,2.7-3.4c0.8-1,1.2-1.5,1.3-1.7c8.4-11.4,13.1-17.2,14-17.2h0.3
				c0.2,0,0.3-0.1,0.3-0.2c0-0.1,0-0.2-0.1-0.3c-0.1-0.1-0.1-0.2-0.1-0.3c0-0.2,0.1-0.4,0.3-0.8c0.2-0.4,0.5-0.8,0.8-1.3
				c0.7-0.8,1.4-1.6,2-2.2c0.7-0.6,1.2-1,1.6-1.1c0.1-0.1,0.2-0.1,0.3-0.1c0.1,0,0.1,0.1,0.1,0.2c0,0.1,0,0.3-0.1,0.4
				c-0.1,0.1-0.1,0.2-0.1,0.3c0,0.1,0,0.1,0.1,0.1c0.1,0,0.1,0,0.3-0.1c0.2-0.2,0.3-0.3,0.3-0.5v-0.3c0-0.1,0-0.3-0.1-0.4
				c-0.1-0.1-0.1-0.2-0.1-0.3c0-0.1,0-0.3,0.1-0.5c0.1-0.2,0.3-0.4,0.5-0.5c0.4-0.3,0.7-0.5,0.8-0.5s0.3,0.1,0.3,0.3
				c0,0.1,0.1,0.2,0.2,0.3h0.1c0.1,0,0.2,0,0.3-0.1c0.2-0.1,0.4-0.2,0.7-0.2c0.3,0,0.7,0.1,1.3,0.3c0.6,0.2,1.3,0.6,2.1,1.1
				C462.5,58.2,463.1,58.7,463.4,59.3z M444.2,92.7c0.3-0.3,0.6-1,1-1.9c0.4-0.9,0.7-1.9,0.9-2.8c0.2-0.8,0.3-1.4,0.3-1.8v-0.3
				c0-0.2-0.1-0.3-0.2-0.3c-0.1-0.1-0.3-0.1-0.4-0.1c-0.2,0.1-0.3,0.1-0.3,0.2v0.1c0,0.1,0,0.2,0.1,0.3l0.1,0.1
				c0,0.3-1.4,0.9-4.2,1.7c-0.2,0.1-0.3,0.2-0.4,0.3c-0.1,0.2-0.1,0.3-0.1,0.5c0,0.3-0.1,0.8-0.4,1.3c-0.3,0.5-0.6,0.9-1,1.3
				c-0.4,0.4-0.7,0.5-1,0.5h-0.3c-0.3,0-0.6,0.1-0.9,0.4c-0.2,0.2-0.3,0.5-0.3,0.7c0,0.2,0,0.3,0.1,0.5v0.1c0,0.2-0.1,0.6-0.3,1.1
				c-0.2,0.5-0.6,1.1-1.1,1.8c-0.5,0.7-0.9,1.4-1.3,1.9c-0.3,0.5-0.5,0.8-0.5,0.9h0.4c0.2,0,0.7,0,1.3,0c0.6,0,1.6-0.2,2.9-0.4
				l4.6-0.7v-2.2c0-0.7,0.1-1.3,0.3-1.9C443.8,93.4,444,93,444.2,92.7z M445.2,84c-0.5-0.2-0.9-0.3-1.1-0.3c-0.1,0-0.1,0-0.2,0.1
				c-0.1,0-0.1,0-0.1,0.1c0,0.1,0.2,0.2,0.7,0.5c0.3,0.2,0.6,0.3,0.8,0.3h0.5v-0.1c0-0.1,0-0.1-0.1-0.3
				C445.6,84.2,445.4,84.1,445.2,84z"/>
			<path class="st0" d="M550,85.4c0.1,0.3,0.1,0.6,0.1,0.9c0,0.3-0.1,0.8-0.2,1.3c-0.1,0.5-0.4,1.3-0.8,2.4
				c-0.4,0.8-0.7,1.6-0.8,2.2c-0.1,0.4-0.2,0.7-0.2,0.8c0,0.1,0,0.2,0.1,0.3v0.1c0,0.1-0.1,0.1-0.2,0.3c-0.1,0.1-0.3,0.2-0.7,0.3
				c-0.3,0.1-0.6,0.2-0.9,0.5c-0.3,0.3-0.4,0.5-0.5,0.8c-0.2,0.4-0.8,1.1-1.9,2.1c-1.1,1-2.2,2-3.5,2.9c-1.2,1-2.2,1.6-3,1.9
				c-0.4,0.2-0.7,0.4-1,0.6c-0.3,0.2-0.4,0.4-0.4,0.4c0,0.1-0.1,0.2-0.2,0.3s-0.3,0.1-0.5,0.1c-0.2,0-0.7,0.2-1.5,0.5
				c-0.8,0.4-1.7,0.8-2.7,1.3c-2,1.1-3.4,1.6-4.2,1.6c-0.2,0-0.3,0-0.4-0.1c-0.2-0.1-0.4-0.1-0.6-0.1c-0.1,0-0.2,0-0.2,0.1
				c0,0.1,0,0.1,0.1,0.3c0,0.2-0.4,0.6-1.1,1.1c-0.7,0.5-1.7,1-2.8,1.6c-1.1,0.6-2.2,1.1-3.2,1.5c-1,0.4-1.7,0.7-2.2,0.7
				c-0.3,0-0.5,0-0.8,0.1c-0.2,0.1-0.4,0.2-0.4,0.4c-0.2,0.2-0.8,0.5-1.9,0.9c-1.1,0.4-2.3,0.8-3.7,1.2c-1.4,0.4-2.7,0.8-3.8,1.1
				c-1,0.2-1.7,0.3-2.1,0.3h-0.3c-0.3-0.1-0.6-0.1-0.8-0.1s-0.3,0-0.3,0.1c0,0.1,0,0.1,0.1,0.3c0.1,0.2,0.2,0.3,0.2,0.3
				c0,0.1,0,0.1-0.1,0.1c-0.1,0-0.2-0.1-0.3-0.2c-0.1-0.1-0.2-0.1-0.3-0.1c-0.1,0-0.2,0-0.3,0c-0.1,0-0.2,0.1-0.3,0.3
				c-0.1,0.2-0.4,0.3-0.9,0.5c-0.5,0.1-1.1,0.3-1.8,0.4c-0.7,0.1-1.5,0.2-2.4,0.3c-0.9,0.2-1.7,0.3-2.4,0.5
				c-2.6,0.6-4.5,0.9-5.8,0.9c-0.8,0-1.4-0.1-1.7-0.3c-0.2-0.3-0.5-0.5-0.9-0.5c-0.2-0.1-0.5-0.1-0.7-0.1c-0.1,0-0.3,0-0.5,0
				c-0.2,0-0.4,0.2-0.4,0.4c-0.1,0.1-0.2,0.2-0.4,0.2h-0.3c-0.2,0-0.4,0-0.6-0.1c-0.3-0.1-0.7-0.2-1.3-0.2l-0.8-0.1l-0.8,0.1
				c-0.3,0.1-0.6,0.1-0.9,0.1c-0.8,0-1.6-0.2-2.2-0.6c-0.5-0.4-0.9-0.6-1.4-0.6c-0.3,0-0.7,0.1-1,0.3c-0.3,0.1-0.7,0.2-1,0.2
				c-0.6,0-1.2-0.2-1.8-0.5c-0.5-0.2-0.9-0.4-1.4-0.5c-0.5-0.1-0.9-0.2-1.2-0.2c-0.7,0-1.7-0.9-3-2.6c-0.5-0.7-1-1.4-1.5-1.9
				c-0.5-0.5-0.8-0.8-1-0.8s-0.3-0.1-0.3-0.2c0-0.1,0.1-0.3,0.3-0.6c0.1-0.1,0.2-0.3,0.2-0.4c0-0.1-0.1-0.3-0.2-0.5
				c-0.1-0.2-0.6-0.6-1.3-1c-0.6-0.4-1.1-0.7-1.4-1.1c-0.3-0.3-0.5-0.7-0.6-1.2c-0.1-0.5-0.2-1.3-0.2-2.4v-0.8c0-0.6,0-1.2,0.1-1.9
				c0.1-0.6,0.2-1,0.3-1.2c0.1-0.2,0.2-0.6,0.4-1.1c0.1-0.5,0.2-1,0.3-1.6c0.1-0.6,0.2-1.1,0.3-1.5c0.2-0.5,0.3-0.7,0.4-0.8
				c0.2-0.1,0.4-0.4,0.6-0.8c0.3-0.4,0.5-0.9,0.7-1.5c0.3-0.7,0.8-1.5,1.5-2.3c0.7-0.9,1.4-1.6,2-2.3c0.7-0.7,1.2-1,1.5-1
				c0.1,0,0.3-0.1,0.5-0.4c0.2-0.3,0.5-0.6,0.7-1c0.3-0.6,1.1-1.5,2.2-2.5c1.2-1,2.3-2,3.5-2.8c1.2-0.8,2-1.2,2.5-1.2
				c0.3,0,0.6-0.1,0.8-0.2c0.3-0.1,0.5-0.2,0.7-0.3c0.2-0.2,0.7-0.5,1.5-0.8c0.8-0.4,1.8-0.8,2.8-1.3c1.1-0.5,2.6-1.2,4.4-2.2
				c1.8-1,3.5-2.1,5.1-3.1c3.8-2.5,6.2-3.8,7.2-3.8c0.5,0,0.9,0,1.4-0.1c0.5-0.1,0.9-0.2,1.3-0.4c0.3-0.2,0.8-0.4,1.5-0.5
				c0.6-0.1,1.6-0.3,3-0.4c1.4-0.1,3.2-0.2,5.7-0.3c1.3-0.1,2.3-0.1,3.1-0.1c0.5,0,1,0,1.5,0.1c0.6,0.1,1.1,0.2,1.5,0.5
				c0.4,0.3,0.8,0.5,1.3,0.6c0.5,0.1,0.8,0.2,1.1,0.2c0.3,0,0.7,0.1,1,0.3c0.3,0.2,0.5,0.3,0.5,0.5v0.1c0,0.1-0.2,0.2-0.5,0.3
				c-0.2,0-0.3,0-0.3,0.1c0,0.1,0.1,0.2,0.3,0.3c0.2,0.2,0.8,0.4,1.6,0.8c0.8,0.3,1.8,0.6,3,0.9c4,1.2,7.1,2.2,9.3,3.2
				c2.2,0.9,4.1,2,5.7,3.1c0.6,0.5,1.2,0.8,1.8,1.1c0.6,0.3,1,0.5,1.3,0.5s0.8,0.4,1.6,1.1c0.8,0.7,1.5,1.5,2.1,2.3
				c0.6,0.8,0.9,1.4,0.9,1.6v0.3c0,0.1,0,0.3,0,0.6C549.8,84.6,549.9,85,550,85.4z M541.4,86.3c0.6-0.6,0.9-1.2,1-1.8v-0.3
				c0-0.4-0.2-0.6-0.5-0.6c-0.2,0-0.3,0.1-0.3,0.3v0.1c0,0.1,0,0.2,0.1,0.3l0.1,0.2h-0.1c-0.1,0-0.3-0.1-0.7-0.4
				c-0.3-0.3-0.7-0.5-1-0.6c-0.2-0.1-0.4-0.1-0.6-0.1H539c-0.6,0-1.7-0.9-3.3-2.6c-0.8-1-1.4-1.6-1.9-2c-0.5-0.4-0.8-0.6-1.1-0.7
				h-0.3c-0.3,0-0.6,0.1-0.9,0.2c-0.5,0.2-0.9,0.3-1.4,0.3h-0.5c-0.3,0-0.5,0-0.7-0.1c-2-0.7-3.4-1.2-4.1-1.4l-0.6-0.1
				c-0.5,0-0.7,0.1-0.8,0.3c-0.1,0.1-0.1,0.2-0.3,0.2c-0.2,0-0.5-0.3-0.9-0.8c-0.4-0.5-0.7-0.7-0.8-0.7c-0.1,0-0.2,0.1-0.2,0.2
				c0,0.3-0.1,0.5-0.4,0.5c-0.1,0-0.2,0-0.3-0.1c-0.1-0.1-0.2-0.1-0.3-0.1c-0.1,0-0.3,0-0.4,0.1c-0.2,0.1-0.3,0.2-0.4,0.5
				c-0.1,0.3-0.4,0.5-1.1,0.6c-0.4,0.1-1.1,0.1-2,0.1h-1.5c-1.2,0-2.3,0-3.2,0c-0.9,0-1.4,0.1-1.6,0.2c-0.2,0.1-0.5,0.2-0.9,0.3
				c-0.5,0.1-0.9,0.1-1.4,0.2c-0.5,0-1.2,0.1-2.2,0.3c-0.9,0.2-1.8,0.4-2.7,0.7c-0.9,0.3-1.8,0.5-2.6,0.8c-0.8,0.2-1.5,0.4-1.9,0.5
				c-0.4,0.1-1,0.3-1.7,0.6c-0.7,0.4-1.5,0.8-2.2,1.2c-0.9,0.6-1.8,1.1-2.6,1.4c-0.8,0.3-1.8,0.5-2.8,0.5c-2,0.1-3.6,0.6-4.9,1.5
				c-0.6,0.4-1.1,0.7-1.6,1c-0.5,0.3-0.9,0.4-1.1,0.4c-0.3,0-0.5,0.1-0.7,0.2c-0.2,0.1-0.3,0.3-0.3,0.5c-0.1,0.3-0.4,0.8-1.1,1.5
				c-0.6,0.7-1.4,1.4-2.1,2.1c-0.8,0.6-1.3,1-1.6,1c-0.3,0-0.8,0.5-1.6,1.5c-0.8,1-1.6,2.2-2.4,3.5c-0.8,1.3-1.4,2.6-1.8,3.7
				c-0.3,0.9-0.7,1.7-1,2.5c-0.3,0.7-0.6,1.2-0.8,1.4c-0.1,0.1-0.2,0.3-0.2,0.4c0,0.1,0.1,0.3,0.2,0.5c0.1,0.2,0.5,0.6,1.2,1.2
				c2,1.5,3.7,2.5,5.2,3c0.6,0.2,1,0.3,1.4,0.3c0.6,0,0.8-0.3,0.8-0.8c0-0.5,0.2-0.8,0.5-0.8s0.8,0.3,1.5,0.8c0.5,0.3,0.8,0.4,1,0.4
				c0.2,0,0.3-0.1,0.4-0.2c0.1-0.2,0.3-0.3,0.4-0.3c0.2,0,0.5,0.2,0.9,0.5c0.3,0.3,0.5,0.5,0.8,0.6c0.2,0.1,0.3,0.1,0.4,0.1
				c0.1,0,0.2,0,0.3-0.1c0.1-0.1,0.3-0.1,0.4-0.1c0.2,0,0.4,0.1,0.6,0.2c0.3,0.2,0.8,0.3,1.6,0.3h0.8c0.5,0,1.1,0,1.7-0.1
				c0.6-0.1,1.2-0.2,1.6-0.4c0.3-0.1,1-0.2,1.9-0.4c0.9-0.1,1.9-0.2,2.9-0.3c1.1,0,2-0.1,2.8-0.2c0.8-0.1,1.3-0.2,1.4-0.3
				c0.2-0.1,0.4-0.2,0.8-0.3c0.3-0.1,0.7-0.2,1-0.2c0.4-0.1,0.8-0.2,1.3-0.3c0.5-0.2,0.8-0.4,1.1-0.6c0.3-0.2,0.7-0.4,1-0.5
				c0.3-0.1,0.6-0.2,0.9-0.2c1.2-0.1,3.5-0.8,6.9-2.1c3.4-1.3,6.8-2.6,10.1-4.1c3.3-1.4,5.3-2.5,6-3.2c0.2-0.2,0.4-0.4,0.7-0.5
				c0.3-0.1,0.6-0.2,1-0.2c0.3,0,0.5-0.1,0.8-0.2c0.2-0.1,0.3-0.3,0.3-0.4c0-0.1,0.1-0.2,0.3-0.3c0.1-0.1,0.1-0.1,0.3-0.1
				c0.1,0,0.1,0,0.3,0.1c0.1,0.1,0.2,0.1,0.3,0.1c0.2,0,0.3-0.2,0.3-0.5v-0.2c0-0.3,0.1-0.5,0.2-0.6c0.1-0.1,0.2-0.2,0.3-0.2h0.1
				c0.2-0.1,0.7-0.4,1.6-1.1c0.8-0.7,1.7-1.5,2.7-2.4c1-0.9,1.9-1.7,2.7-2.5c0.8-0.8,1.2-1.3,1.2-1.4c0-0.1,0.1-0.3,0.3-0.5
				C540.8,86.8,541.1,86.6,541.4,86.3z"/>
		</g>
		<path class="st0" d="M128.6,143.6l8.9-1.7l-4.4-2.7l12.9-2.7h5.1h11.2c0,0,86.1-5.4,92.3-3.9c6.1,1.5,12.9-0.3,12.9-0.3
			s-2-2.6,0-2.6c2,0,16.7,2.7,19.4,2.9c2.7,0.2,13.6-2.9,13.6-2.9l20,1.4l18.1,3.4c0,0,134.2,4.4,144.1,6.8
			c9.9,2.4,11.6,2.4,11.6,2.4l-1.7,3.1h-24.7l-4.1,4.1l-5.6-3h-14.3v3c0,0-101.8-9.5-129.7-8.8s-74.9-1.7-74.9-1.7l-83.7,4.8
			L149,148l-9.5,2.7l-3.4-2l0.7-3.1H132L128.6,143.6z"/>
	</g>
	<path class="st0" d="M309,46.6c0,0-7.4,6.1-5.6,6.1S309,51,309,51l-1.8,4.9c0,0,2.5-3.2,4.2-3.7c1.7-0.5,17-5.9,21.8-5.6
		c4.9,0.3,20.7-0.3,28.3,2.6c7.7,2.8,11.7,12.2,11.7,12.2h3.1l1.2-2.8c0,0,2.6-5.1,1.5-6.1c-1-1,2.6,1.5,2.6,1.5s-3.8-7.1-11-10.2
		c-7.1-3.1-30.1-9.7-39.6-5.9S309,46.6,309,46.6z"/>
	<path class="st0" d="M309.5,39.7l-3.6-11.5l-1.3-12.8l4.9,2l1.9,3.4v8.3c0,0,1.4,2,1.9,3.3c0.5,1.3-1,2.5,0,4.2s-1.9,5.5-1.9,5.5
		l-3.7-1.8"/>
	<path class="st0" d="M334.5,12.4c0,0-2.6-7.4-4.6-2.3c-2,5.1-0.8,7.1,0,10s1.7,8.8,1.7,8.8l1.6,2.9l3.3,2.6v-3.1l2-2.4
		c0,0,1,0.1,0-2.7c-1-2.8-1.8-7.1-1.8-7.1L334.5,12.4z"/>
	<path class="st0" d="M365.1,11.4c0,0-10,10.7-9.4,11.5c0.5,0.8-5.6,10.7-4.6,11.5s2.3,0,2.3,0l1.5,0.3c0,0,1.9,0.9,3.1-0.3
		s1.5-2.8,2.5-3.8s1-1.3,3.1-3.6c2-2.3,0-0.6,2.6-3.7s2.6-2.6,2.8-4.4c0.3-1.8,0-4.3,0-4.3l-1.5-1.3L365.1,11.4z"/>
	<path class="st0" d="M383.3,24.7c0,0-6,3.1-6.8,4.2c-0.8,1.1-5.4,1-7.3,6.2c-1.9,5.2,1.4,2.6,3.7,1.7c2.3-0.9,0.4-2.4,3.6-2.4
		s2.2,1,5.3-1c3.1-2,1.8-4.1,4.1-4.5c2.3-0.4,0-4.2,0-4.2h-4.1"/>
</g>
</svg>
